<svg width="512" height="512" viewBox="0 0 512 512" fill="none" xmlns="http://www.w3.org/2000/svg" role="img" aria-label="Wix">
  <defs>
    <linearGradient id="barA" x1="0" y1="1" x2="0" y2="0">
      <stop stop-color="#22D3EE" />
      <stop offset="1" stop-color="#38BDF8" />
    </linearGradient>
    <linearGradient id="barB" x1="0" y1="1" x2="0" y2="0">
      <stop stop-color="#C084FC" />
      <stop offset="1" stop-color="#F472B6" />
    </linearGradient>
    <filter id="glow" x="-20%" y="-20%" width="140%" height="140%">
      <feDropShadow dx="0" dy="4" stdDeviation="6" flood-color="#22D3EE" flood-opacity="0.35" />
    </filter>
  </defs>
  <g filter="url(#glow)" opacity="0.92">
    <rect x="72" y="248" width="40" height="128" rx="20" fill="url(#barA)" />
    <rect x="124" y="208" width="40" height="168" rx="20" fill="url(#barB)" />
    <rect x="176" y="268" width="40" height="108" rx="20" fill="url(#barA)" />
    <rect x="228" y="188" width="40" height="188" rx="20" fill="url(#barB)" />
    <rect x="280" y="232" width="40" height="144" rx="20" fill="url(#barA)" />
    <rect x="332" y="212" width="40" height="164" rx="20" fill="url(#barB)" />
    <rect x="384" y="256" width="40" height="120" rx="20" fill="url(#barA)" />
  </g>
  <path
    d="M88 392 C132 352 156 432 200 392 S280 352 324 392 S412 432 456 388"
    stroke="#F8FAFC"
    stroke-width="16"
    stroke-linecap="round"
    stroke-linejoin="round"
    fill="none"
    opacity="0.9"
  />
  <text
    x="256"
    y="318"
    text-anchor="middle"
    font-family="Inter, ui-sans-serif, system-ui, -apple-system, BlinkMacSystemFont, 'Segoe UI', sans-serif"
    font-size="156"
    font-weight="900"
    letter-spacing="-6"
    fill="#FFFFFF"
    stroke="#020617"
    stroke-width="10"
    stroke-linejoin="round"
    paint-order="stroke fill"
  >
    Wix
  </text>
</svg>
